<svg width="18" height="18" viewBox="0 0 18 18" fill="none" xmlns="http://www.w3.org/2000/svg">
<path d="M2.00098 5.59305C2.00098 4.82582 2.30576 4.09001 2.84827 3.54749C3.39079 3.00498 4.1266 2.7002 4.89383 2.7002H12.6081C13.3754 2.7002 14.1112 3.00498 14.6537 3.54749C15.1962 4.09001 15.501 4.82582 15.501 5.59305V13.3073C15.501 14.0746 15.1962 14.8104 14.6537 15.3529C14.1112 15.8954 13.3754 16.2002 12.6081 16.2002H4.89383C4.1266 16.2002 3.39079 15.8954 2.84827 15.3529C2.30576 14.8104 2.00098 14.0746 2.00098 13.3073V5.59305ZM4.89383 4.14662C4.51022 4.14662 4.14231 4.29901 3.87105 4.57027C3.5998 4.84153 3.44741 5.20944 3.44741 5.59305V13.3073C3.44741 13.691 3.5998 14.0589 3.87105 14.3301C4.14231 14.6014 4.51022 14.7538 4.89383 14.7538H12.6081C12.9917 14.7538 13.3596 14.6014 13.6309 14.3301C13.9022 14.0589 14.0545 13.691 14.0545 13.3073V5.59305C14.0545 5.20944 13.9022 4.84153 13.6309 4.57027C13.3596 4.29901 12.9917 4.14662 12.6081 4.14662H4.89383Z" fill="#7B8C95"/>
</svg>
