<svg width="20" height="16" viewBox="0 0 20 16" fill="none" xmlns="http://www.w3.org/2000/svg">
<path d="M1 1V0.25C0.801088 0.25 0.610322 0.329018 0.46967 0.46967C0.329018 0.610322 0.25 0.801088 0.25 1H1ZM19 1H19.75C19.75 0.801088 19.671 0.610322 19.5303 0.46967C19.3897 0.329018 19.1989 0.25 19 0.25V1ZM1 1.75H19V0.25H1V1.75ZM18.25 1V13H19.75V1H18.25ZM17 14.25H3V15.75H17V14.25ZM1.75 13V1H0.25V13H1.75ZM3 14.25C2.31 14.25 1.75 13.69 1.75 13H0.25C0.25 13.7293 0.539731 14.4288 1.05546 14.9445C1.57118 15.4603 2.27065 15.75 3 15.75V14.25ZM18.25 13C18.25 13.69 17.69 14.25 17 14.25V15.75C17.7293 15.75 18.4288 15.4603 18.9445 14.9445C19.4603 14.4288 19.75 13.7293 19.75 13H18.25Z" fill="#536471"/>
<path d="M1 1L10 10L19 1" stroke="#536471" stroke-width="1.2" stroke-linecap="round" stroke-linejoin="round"/>
</svg>
