<svg width="20" height="21" viewBox="0 0 20 21" fill="none" xmlns="http://www.w3.org/2000/svg">
<path d="M10.066 8.05446C9.74727 8.05446 9.48467 7.80208 9.47794 7.48771L9.32532 0.593795C9.31859 0.272787 9.5767 0.00712671 9.89989 0.000485166C10.2298 -0.0127979 10.4947 0.248436 10.5014 0.56723L10.654 7.46115C10.6607 7.78216 10.4026 8.04782 10.0794 8.05446C10.0749 8.05446 10.0705 8.05446 10.066 8.05446Z" fill="white"/>
<path d="M0.58803 10.6336C0.262593 10.6336 0 10.3746 0 10.0535C0 9.73254 0.262593 9.47352 0.58803 9.47352C2.75611 9.47352 4.94439 9.4713 7.10125 9.47352C7.42669 9.47352 7.6893 9.73475 7.6893 10.0535C7.6893 10.3746 7.42669 10.6336 7.10125 10.6336C4.94439 10.6314 2.75611 10.6336 0.58803 10.6336Z" fill="white"/>
<path d="M10.47 20.8904C10.158 20.8904 9.89766 20.6469 9.88195 20.337L9.55203 13.0335C9.53856 12.7125 9.78994 12.4424 10.1131 12.4269C10.4431 12.4136 10.7124 12.6616 10.7281 12.9804L11.058 20.2839C11.0715 20.6049 10.8201 20.8749 10.4969 20.8904C10.4879 20.8904 10.479 20.8904 10.47 20.8904Z" fill="white"/>
<path d="M17.6678 10.8793C15.9867 10.8793 14.2989 10.8196 12.6291 10.7C12.3059 10.6779 12.0613 10.3989 12.0859 10.0801C12.1084 9.76135 12.3889 9.52225 12.7144 9.54439C14.9296 9.70379 17.1785 9.75471 19.3959 9.69936C19.7236 9.69051 19.9907 9.9451 19.9997 10.2639C20.0087 10.5849 19.7506 10.8506 19.4274 10.8594C18.8438 10.8749 18.2558 10.8816 17.6678 10.8816V10.8793Z" fill="white"/>
</svg>
