<svg width="18" height="18" viewBox="0 0 18 18" fill="none" xmlns="http://www.w3.org/2000/svg">
<path d="M4.4375 2.25C3.79103 2.25 3.17105 2.50681 2.71393 2.96393C2.25681 3.42105 2 4.04103 2 4.6875V13.3125C2 13.959 2.25681 14.579 2.71393 15.0361C3.17105 15.4932 3.79103 15.75 4.4375 15.75H13.0625C13.709 15.75 14.329 15.4932 14.7861 15.0361C15.2432 14.579 15.5 13.959 15.5 13.3125V4.6875C15.5 4.04103 15.2432 3.42105 14.7861 2.96393C14.329 2.50681 13.709 2.25 13.0625 2.25H4.4375ZM12.71 6.96L7.6445 12.0203C7.53903 12.1256 7.39606 12.1848 7.247 12.1848C7.09794 12.1848 6.95497 12.1256 6.8495 12.0203L4.79 9.96C4.69064 9.85337 4.63655 9.71233 4.63912 9.56661C4.64169 9.42088 4.70072 9.28184 4.80378 9.17878C4.90684 9.07572 5.04588 9.01669 5.19161 9.01412C5.33733 9.01155 5.47837 9.06564 5.585 9.165L7.24775 10.827L11.915 6.16425C11.9673 6.11205 12.0294 6.07066 12.0977 6.04245C12.166 6.01424 12.2391 5.99975 12.313 5.99982C12.3869 5.99989 12.4601 6.01451 12.5283 6.04285C12.5966 6.0712 12.6585 6.1127 12.7108 6.165C12.763 6.2173 12.8043 6.27937 12.8326 6.34766C12.8608 6.41596 12.8752 6.48914 12.8752 6.56303C12.8751 6.63692 12.8605 6.71008 12.8321 6.77832C12.8038 6.84656 12.7623 6.90855 12.71 6.96075" fill="#F78012"/>
</svg>
