<svg width="18" height="19" viewBox="0 0 18 19" fill="none" xmlns="http://www.w3.org/2000/svg">
<path d="M3 13.968C3 13.1724 3.31607 12.4093 3.87868 11.8467C4.44129 11.2841 5.20435 10.968 6 10.968H12C12.7956 10.968 13.5587 11.2841 14.1213 11.8467C14.6839 12.4093 15 13.1724 15 13.968C15 14.3658 14.842 14.7474 14.5607 15.0287C14.2794 15.31 13.8978 15.468 13.5 15.468H4.5C4.10218 15.468 3.72064 15.31 3.43934 15.0287C3.15804 14.7474 3 14.3658 3 13.968Z" stroke="#536471" stroke-width="1.5" stroke-linejoin="round"/>
<path d="M9 7.96802C10.2426 7.96802 11.25 6.96066 11.25 5.71802C11.25 4.47538 10.2426 3.46802 9 3.46802C7.75736 3.46802 6.75 4.47538 6.75 5.71802C6.75 6.96066 7.75736 7.96802 9 7.96802Z" stroke="#536471" stroke-width="1.5"/>
</svg>
