<svg width="18" height="19" viewBox="0 0 18 19" fill="none" xmlns="http://www.w3.org/2000/svg">
<path d="M6 8.71802V5.71802C6 4.92237 6.31607 4.15931 6.87868 3.5967C7.44129 3.03409 8.20435 2.71802 9 2.71802C9.79565 2.71802 10.5587 3.03409 11.1213 3.5967C11.6839 4.15931 12 4.92237 12 5.71802V8.71802M11.25 12.468H11.2575M9.0075 12.468H9.015M6.765 12.468H6.7725M3.75 10.218C3.75 9.82019 3.90804 9.43866 4.18934 9.15736C4.47064 8.87605 4.85218 8.71802 5.25 8.71802H12.75C13.1478 8.71802 13.5294 8.87605 13.8107 9.15736C14.092 9.43866 14.25 9.82019 14.25 10.218V14.718C14.25 15.1158 14.092 15.4974 13.8107 15.7787C13.5294 16.06 13.1478 16.218 12.75 16.218H5.25C4.85218 16.218 4.47064 16.06 4.18934 15.7787C3.90804 15.4974 3.75 15.1158 3.75 14.718V10.218Z" stroke="#536471" stroke-width="1.5" stroke-linecap="round" stroke-linejoin="round"/>
</svg>
