<svg width="18" height="18" viewBox="0 0 18 18" fill="none" xmlns="http://www.w3.org/2000/svg">
<path d="M4.5 13.3501H6.75V9.6001C6.75 9.3876 6.822 9.2096 6.966 9.0661C7.11 8.9226 7.288 8.8506 7.5 8.8501H10.5C10.7125 8.8501 10.8908 8.9221 11.0347 9.0661C11.1788 9.2101 11.2505 9.3881 11.25 9.6001V13.3501H13.5V6.6001L9 3.2251L4.5 6.6001V13.3501ZM3 13.3501V6.6001C3 6.3626 3.05325 6.1376 3.15975 5.9251C3.26625 5.7126 3.413 5.5376 3.6 5.4001L8.1 2.0251C8.3625 1.8251 8.6625 1.7251 9 1.7251C9.3375 1.7251 9.6375 1.8251 9.9 2.0251L14.4 5.4001C14.5875 5.5376 14.7345 5.7126 14.841 5.9251C14.9475 6.1376 15.0005 6.3626 15 6.6001V13.3501C15 13.7626 14.853 14.1158 14.559 14.4098C14.265 14.7038 13.912 14.8506 13.5 14.8501H10.5C10.2875 14.8501 10.1095 14.7781 9.966 14.6341C9.8225 14.4901 9.7505 14.3121 9.75 14.1001V10.3501H8.25V14.1001C8.25 14.3126 8.178 14.4908 8.034 14.6348C7.89 14.7788 7.712 14.8506 7.5 14.8501H4.5C4.0875 14.8501 3.7345 14.7033 3.441 14.4098C3.1475 14.1163 3.0005 13.7631 3 13.3501Z" fill="#5F6C73"/>
</svg>
