<svg width="25" height="25" viewBox="0 0 25 25" fill="none" xmlns="http://www.w3.org/2000/svg">
<path d="M22.3055 10.5095H21.5V10.468H12.5V14.468H18.1515C17.327 16.7965 15.1115 18.468 12.5 18.468C9.1865 18.468 6.5 15.7815 6.5 12.468C6.5 9.15452 9.1865 6.46802 12.5 6.46802C14.0295 6.46802 15.421 7.04502 16.4805 7.98752L19.309 5.15902C17.523 3.49452 15.134 2.46802 12.5 2.46802C6.9775 2.46802 2.5 6.94552 2.5 12.468C2.5 17.9905 6.9775 22.468 12.5 22.468C18.0225 22.468 22.5 17.9905 22.5 12.468C22.5 11.7975 22.431 11.143 22.3055 10.5095Z" fill="#FFC107"/>
<path d="M3.65308 7.81352L6.93858 10.223C7.82758 8.02202 9.98058 6.46802 12.5001 6.46802C14.0296 6.46802 15.4211 7.04502 16.4806 7.98752L19.3091 5.15902C17.5231 3.49452 15.1341 2.46802 12.5001 2.46802C8.65908 2.46802 5.32808 4.63652 3.65308 7.81352Z" fill="#FF3D00"/>
<path d="M12.4999 22.468C15.0829 22.468 17.4299 21.4795 19.2044 19.872L16.1094 17.253C15.0717 18.0422 13.8036 18.469 12.4999 18.468C9.89891 18.468 7.69041 16.8095 6.85841 14.495L3.59741 17.0075C5.25241 20.246 8.61341 22.468 12.4999 22.468Z" fill="#4CAF50"/>
<path d="M22.3055 10.5095H21.5V10.468H12.5V14.468H18.1515C17.7571 15.5762 17.0467 16.5446 16.108 17.2535L16.1095 17.2525L19.2045 19.8715C18.9855 20.0705 22.5 17.468 22.5 12.468C22.5 11.7975 22.431 11.143 22.3055 10.5095Z" fill="#1976D2"/>
</svg>
