<svg width="77" height="65" viewBox="0 0 77 65" fill="none" xmlns="http://www.w3.org/2000/svg">
<g opacity="0.8">
<path d="M2.46386 14.8975C2.37941 14.8975 2.29496 14.868 2.22793 14.8063C0.368697 13.1254 0.0617192 10.4364 0.00675973 7.78101C-0.0120069 6.84939 -0.00795407 6.0116 0.240034 5.19393C0.466574 4.44462 0.904906 3.70737 1.57782 2.9393C3.1502 1.14711 5.23866 0.0774284 7.30567 0.00370361C9.66758 -0.0794044 11.9209 1.24362 12.7882 3.22213C13.0697 3.86286 13.2346 4.6162 13.2949 5.52368C13.3579 6.46468 13.2815 7.20863 13.0549 7.86143C12.4035 9.74208 10.307 10.9579 8.27751 10.6281C6.36197 10.3158 4.71454 8.65096 4.36199 6.66709C4.2266 5.90571 4.29227 5.19796 4.55099 4.62156C5.12471 3.34947 6.75339 2.71544 8.03622 3.26368C9.31905 3.81193 9.98525 5.42851 9.46113 6.72205C9.38874 6.90167 9.18366 6.9888 9.00404 6.91641C8.82442 6.84403 8.73729 6.63894 8.80968 6.45931C9.18903 5.52234 8.68768 4.3079 7.75873 3.90978C6.82978 3.51301 5.60594 3.98886 5.18905 4.90975C4.93436 5.47408 4.97323 6.10946 5.05098 6.54242C5.35259 8.24212 6.75605 9.66702 8.38741 9.93243C10.059 10.2045 11.8539 9.17105 12.3874 7.62953C12.5818 7.06789 12.6461 6.4124 12.5898 5.56792C12.5348 4.74354 12.3874 4.06661 12.1407 3.50228C11.386 1.78114 9.40484 0.62701 7.3271 0.703415C5.45178 0.770438 3.54697 1.75299 2.10194 3.4004C1.49604 4.09074 1.10598 4.74354 0.908929 5.395C0.690432 6.11482 0.687748 6.89363 0.705174 7.76492C0.756112 10.2622 1.03357 12.7822 2.69442 14.2835C2.83785 14.4136 2.84994 14.6361 2.71991 14.7795C2.65021 14.8559 2.55501 14.8948 2.45983 14.8948L2.46386 14.8975Z" fill="#249CD9"/>
<path d="M46.5106 49.4693C41.9181 52.5162 42.8605 61.6594 45.9154 62.0267C54.8188 57.953 66.001 50.7226 74.371 45.641C75.072 45.2161 76.2611 44.9573 76.4702 45.7509C76.6136 46.2951 76.0653 46.7509 75.5854 47.0444C67.1177 52.2226 55.8523 59.5803 46.8765 63.8175C46.217 64.1285 45.4462 64.4408 44.7854 64.1325C44.3095 63.9113 43.0642 63.1821 42.831 62.7116C41.1192 59.268 40.839 55.4866 41.6192 51.7213C41.7961 50.8687 42.7613 50.0162 43.2304 49.283C44.2532 47.6811 46.28 47.1798 47.9114 46.2053C55.469 41.6907 65.3885 36.5112 73.7128 32.2164C74.1069 32.0126 74.3482 32.152 74.6699 32.4576C75.1485 32.912 74.6096 33.3075 74.0707 33.6868C72.5064 34.786 53.0749 45.6021 46.5119 49.4706L46.5106 49.4693Z" fill="#249CD9"/>
<path d="M45.3882 64.4942C45.1523 64.4942 44.9164 64.45 44.6885 64.3441C44.4097 64.2141 42.9271 63.4259 42.6228 62.8146C40.9646 59.4796 40.5504 55.7304 41.3909 51.6715C41.5196 51.0495 41.9968 50.4691 42.4579 49.9074C42.6764 49.6407 42.8842 49.3887 43.0343 49.1541C43.7917 47.9691 45.0651 47.3606 46.2984 46.7721C46.8011 46.5322 47.3198 46.2842 47.7917 46.0027C55.0785 41.6502 64.5047 36.704 73.6052 32.0057C74.1615 31.7175 74.5167 31.9856 74.8317 32.2845C75.0167 32.4601 75.1025 32.6531 75.0878 32.8569C75.0569 33.2764 74.6052 33.5941 74.2057 33.8743C73.3505 34.4748 67.2701 37.9171 60.8318 41.5604C55.3345 44.6716 49.6509 47.8887 46.6375 49.6648C43.8373 51.5267 43.1081 55.8228 43.8427 58.9206C44.2341 60.5694 44.9941 61.631 45.8829 61.7825C53.0584 58.4917 61.6213 53.2103 69.1789 48.5509C70.9644 47.4504 72.6508 46.4102 74.2513 45.4384C74.7875 45.1126 75.6186 44.8633 76.1722 45.0872C76.4416 45.1957 76.6239 45.4035 76.699 45.6877C76.8424 46.2292 76.51 46.752 75.7098 47.2413C73.9671 48.3069 72.124 49.4544 70.1709 50.6688C62.6468 55.3497 54.1187 60.6565 46.978 64.0264C46.4807 64.261 45.9311 64.4915 45.3869 64.4915L45.3882 64.4942ZM74.0543 32.3529C73.9832 32.3529 73.9095 32.3783 73.821 32.4239C64.7272 37.1182 55.3077 42.0604 48.0329 46.4062C47.541 46.6997 47.0129 46.9517 46.5008 47.197C45.2729 47.7828 44.1148 48.3364 43.4298 49.4088C43.2649 49.6675 43.0491 49.9289 42.8212 50.2077C42.3963 50.7251 41.9566 51.2599 41.8507 51.7693C41.0317 55.7223 41.4325 59.3697 43.0424 62.6082C43.2247 62.9755 44.3399 63.6672 44.8869 63.9218C45.4552 64.1873 46.163 63.8991 46.7796 63.6082C53.8962 60.249 62.4122 54.9502 69.9256 50.276C71.8787 49.0603 73.7232 47.9128 75.4671 46.8472C75.8813 46.5938 76.3532 46.2091 76.2486 45.8137C76.2111 45.6716 76.132 45.5804 75.9993 45.5268C75.6172 45.3727 74.9403 45.5751 74.4966 45.8445C72.8974 46.815 71.2124 47.8552 69.4269 48.9557C61.8358 53.6366 53.2327 58.9421 46.0182 62.2436C45.9794 62.261 45.9351 62.2691 45.8922 62.2637C44.7555 62.127 43.8426 60.9501 43.3896 59.0359C42.6174 55.7813 43.4043 51.2559 46.3855 49.2788C46.3896 49.2761 46.3922 49.2747 46.3962 49.2721C49.411 47.4946 55.1013 44.2748 60.6026 41.161C67.0302 37.523 73.1012 34.0874 73.9376 33.499C74.2044 33.3113 74.6079 33.0285 74.6226 32.8301C74.6266 32.7724 74.5891 32.7054 74.5113 32.6317C74.3116 32.4413 74.187 32.3582 74.0556 32.3582L74.0543 32.3529Z" fill="#249CD9"/>
<path d="M45.631 64.3764C40.5788 64.3577 18.536 41.0003 12.9087 34.7471C12.898 34.7364 12.8899 34.7243 12.8819 34.7109C12.7907 34.5581 12.8846 34.4214 12.9342 34.3476C13.0119 34.235 13.099 34.1064 12.9905 33.8329C11.6272 30.3906 11.1312 25.1964 12.8202 21.927C13.5307 20.553 27.5614 13.2664 33.9662 10.946C35.3603 10.4407 37.371 9.59218 39.3147 8.77049C41.3911 7.89383 43.5372 6.98634 45.0251 6.45821C45.0787 6.43944 45.139 6.44078 45.1913 6.46222C45.6886 6.66463 46.1404 6.95149 46.5345 7.31475C50.4969 10.9648 59.7261 18.9914 66.4646 24.8532C69.4097 27.4135 71.9526 29.6252 73.3922 30.896C73.4512 30.9483 73.4807 31.026 73.47 31.1037C73.4592 31.1815 73.411 31.2485 73.3399 31.2834C72.5799 31.6533 71.3923 32.3664 70.2448 33.0568C69.1295 33.727 68.0759 34.361 67.3547 34.7216C65.0169 35.8892 62.4714 37.1907 59.5746 38.6987C53.9835 41.6089 48.9956 44.3327 44.3254 47.0229C44.0988 47.1865 41.5948 50.2722 41.6699 54.2922C41.6726 54.4048 41.7115 54.4893 41.7865 54.5429C41.8696 54.6019 41.9929 54.6166 42.1002 54.5817C42.1685 54.559 42.2423 54.5683 42.3026 54.6086C42.3629 54.6488 42.4005 54.7131 42.4072 54.7842C42.6471 57.6728 44.0493 60.4677 45.6726 63.7049L45.8401 64.0386C45.8763 64.111 45.8723 64.1982 45.8294 64.2665C45.7865 64.3349 45.7114 64.3778 45.631 64.3778V64.3764ZM13.3604 34.55C21.4864 43.5686 40.1632 62.7706 45.2262 63.8604C43.6377 60.6929 42.2638 57.9396 41.9621 55.067C41.8013 55.063 41.6418 55.0147 41.5144 54.9236C41.3174 54.7842 41.2048 54.5616 41.2007 54.2989C41.123 50.1743 43.7289 46.8232 44.0908 46.6154C48.7664 43.9211 53.761 41.1947 59.3574 38.2819C62.2569 36.7725 64.8051 35.4709 67.1456 34.3007C67.8507 33.9482 68.9459 33.29 70.0049 32.6533C71.0169 32.0447 72.0585 31.4187 72.8252 31.018C71.3507 29.7217 68.9338 27.6186 66.159 25.2071C59.4178 19.344 50.186 11.3147 46.2181 7.65925C45.8871 7.35362 45.5104 7.10832 45.0962 6.93004C43.6243 7.45818 41.5265 8.34422 39.4957 9.20211C37.5453 10.0251 35.5292 10.8777 34.1244 11.3857C27.6391 13.7355 13.8242 21.0008 13.2358 22.1415C11.6111 25.2862 12.1017 30.3156 13.4261 33.66C13.6004 34.0997 13.4596 34.3932 13.3604 34.55ZM39.2503 46.2924C39.0318 46.2924 38.8227 46.1999 38.6565 46.0257C35.1069 42.2952 31.623 38.6572 28.0359 35.1827C26.4274 33.6238 24.729 32.0943 23.0856 30.6158C20.9985 28.7378 18.8215 26.7955 16.8229 24.7688C16.5213 24.4631 15.965 24.1307 16.2384 23.8238C16.4931 23.5396 17.028 23.691 17.4341 24.0087C20.5748 26.4752 23.4891 29.3612 26.3094 32.1533C27.0856 32.9227 27.8603 33.6881 28.6365 34.4441C31.93 37.6505 35.749 41.3877 39.3884 45.1812C39.6082 45.4104 39.686 45.7106 39.6002 46.0029C39.5077 46.3192 39.7544 46.1959 39.4394 46.2723C39.3764 46.287 39.3133 46.2951 39.2517 46.2951L39.2503 46.2924ZM34.2249 30.5327C34.1337 30.5327 34.1016 30.5005 34.0667 30.4684C32.0279 28.4885 26.7732 24.0972 26.7196 24.053C26.6579 24.002 26.6271 23.9229 26.6378 23.8439C26.6472 23.7648 26.6968 23.6964 26.7692 23.6616L44.6256 15.0988C44.7141 15.0572 44.82 15.0733 44.8897 15.1416L51.7543 21.8265C51.8079 21.8788 51.8334 21.9552 51.8226 22.0302C51.8106 22.1053 51.7637 22.1696 51.6966 22.2031C51.6538 22.2246 47.387 24.3827 43.1351 26.4752C36.0547 29.959 34.6123 30.5327 34.2249 30.5327ZM27.3 23.9256C28.4059 24.8546 32.5064 28.3116 34.3228 30.0622C35.4166 29.8008 44.8147 25.1562 51.1926 21.9324L44.6806 15.5907L27.2987 23.9256H27.3Z" fill="#249CD9"/>
<path d="M70.9062 33.7699C72.2119 33.4763 73.4987 33.1854 74.4558 32.2672C74.4652 32.2525 74.437 32.2083 74.3821 32.1426C73.232 32.7015 72.0671 33.231 70.9062 33.7699Z" fill="#249CD9"/>
<path d="M70.9062 34.0044C70.8083 34.0044 70.7172 33.9427 70.685 33.8462C70.6461 33.7323 70.6998 33.609 70.8083 33.558L71.6354 33.176C72.5054 32.7739 73.4048 32.3583 74.2801 31.9334C74.3767 31.8865 74.492 31.9106 74.5617 31.9924C74.626 32.0675 74.7587 32.2243 74.6555 32.3905C74.6448 32.4079 74.6327 32.4227 74.6179 32.4361C73.6139 33.3999 72.2641 33.7041 70.9584 33.9977C70.941 34.0017 70.9236 34.0031 70.9062 34.0031V34.0044Z" fill="#249CD9"/>
<path d="M64.1614 42.1464C64.077 42.1464 63.9939 42.0995 63.9523 42.0191C63.8933 41.9038 63.9389 41.7631 64.0542 41.7041C65.3169 41.0566 67.2097 39.9052 68.8799 38.8878C69.9161 38.2578 70.8946 37.6626 71.648 37.231C71.7606 37.1666 71.904 37.2055 71.9684 37.3181C72.0327 37.4307 71.9938 37.5728 71.8812 37.6372C71.1332 38.0661 70.1574 38.6599 69.1239 39.2872C67.4469 40.3073 65.5461 41.4641 64.2687 42.1196C64.2352 42.137 64.1976 42.1451 64.1614 42.1451V42.1464Z" fill="#249CD9"/>
<path d="M66.9752 42.3017C66.8854 42.3017 66.7996 42.2494 66.7607 42.1623C66.7085 42.0443 66.7607 41.9062 66.8787 41.8526C67.2902 41.669 68.2044 41.0845 69.0878 40.5189C70.0288 39.917 70.9162 39.3487 71.3599 39.1516C71.4778 39.0993 71.6159 39.1516 71.6695 39.2696C71.7218 39.3875 71.6696 39.5256 71.5516 39.5792C71.1401 39.7629 70.2259 40.3473 69.3412 40.913C68.4015 41.5148 67.5141 42.0818 67.0704 42.2802C67.0395 42.2936 67.0074 42.3003 66.9752 42.3003V42.3017Z" fill="#249CD9"/>
<path d="M63.7726 49.7854C63.6802 49.7854 63.593 49.7305 63.5568 49.6407C63.5072 49.5214 63.5635 49.3846 63.6842 49.335C66.6117 48.1246 71.3195 45.1032 72.6935 44.2065C72.8021 44.1354 72.9468 44.1663 73.0179 44.2748C73.0889 44.3834 73.0581 44.5282 72.9495 44.5992C71.5675 45.5013 66.8276 48.5428 63.8624 49.768C63.833 49.7801 63.8035 49.7854 63.7726 49.7854Z" fill="#249CD9"/>
<path d="M44.9046 52.7079C44.8228 52.7079 44.7424 52.665 44.6995 52.5872C44.6365 52.4746 44.6767 52.3312 44.7893 52.2682L49.9434 49.3916C50.056 49.3286 50.1994 49.3688 50.2624 49.4814C50.3254 49.594 50.2852 49.7374 50.1726 49.8004L45.0185 52.677C44.9823 52.6972 44.9434 52.7065 44.9046 52.7065V52.7079Z" fill="#249CD9"/>
<path d="M44.9676 54.3607C44.9073 54.3607 44.8456 54.3366 44.8 54.2897C44.7089 54.1972 44.7116 54.0484 44.8041 53.9586C45.2612 53.5122 45.8268 53.2374 46.3268 52.9948L48.7947 51.7964C48.9113 51.7401 49.0507 51.7884 49.107 51.905C49.1633 52.0216 49.115 52.161 48.9984 52.2187L46.5306 53.417C46.0413 53.6543 45.5346 53.901 45.1311 54.295C45.0855 54.3393 45.0266 54.3621 44.9676 54.3621V54.3607Z" fill="#249CD9"/>
<path d="M45.6137 64.4231C45.4488 64.4231 45.2812 64.407 45.1136 64.3708C44.2102 64.1778 43.4515 63.4392 42.859 62.1765C41.7075 59.7195 41.6459 56.9621 41.5855 54.2973C41.5802 54.0292 41.5735 53.7625 41.5667 53.4971C41.4327 48.461 48.7705 44.6622 58.0613 39.8513C61.7677 37.9331 65.9688 35.7575 70.1041 33.2871C70.3079 33.1651 70.517 33.0337 70.7288 32.901C71.4982 32.4171 72.2944 31.9171 73.1363 31.6692C73.9821 31.4212 74.6161 31.5713 74.9231 32.0928C75.0853 32.3675 75.1295 32.6665 75.0531 32.9587C74.8615 33.6879 73.9526 34.2107 73.4647 34.4922L73.3414 34.5645C69.8749 36.6168 65.0411 39.3097 60.3669 41.9142C57.257 43.6461 54.32 45.2828 51.9192 46.6554C51.4594 46.9181 50.9903 47.1715 50.4943 47.4396C48.5721 48.4784 46.5828 49.5521 45.2222 51.1566C43.9957 52.603 43.9541 57.0144 44.7825 59.4768C45.0842 60.3749 45.485 60.9406 45.8818 61.0291C46.4515 61.1551 47.0654 60.8709 47.6967 60.5425C52.9474 57.8066 60.832 53.0561 67.1685 49.2398C68.9164 48.1862 70.5411 47.2077 71.9526 46.3672C72.9835 45.7533 74.151 45.0563 75.4084 44.7466C75.9271 44.6193 76.458 44.8203 76.7649 45.26C77.0732 45.701 77.0786 46.272 76.7797 46.7157C76.4607 47.1876 75.9526 47.6621 75.3856 48.016C69.9861 51.3872 56.4728 59.6766 47.6284 63.8279C46.9568 64.1429 46.2946 64.4217 45.611 64.4217L45.6137 64.4231ZM73.8668 32.2563C73.6671 32.2563 73.458 32.3072 73.336 32.3434C72.5867 32.5632 71.8333 33.0378 71.1041 33.4962C70.887 33.6329 70.6738 33.7656 70.466 33.8903C66.3119 36.3715 62.1001 38.551 58.3857 40.4746C49.3133 45.1715 42.1485 48.8806 42.2705 53.477C42.2772 53.7437 42.2839 54.0118 42.2893 54.2812C42.3469 56.8737 42.4072 59.5546 43.4971 61.8789C43.9903 62.9325 44.5842 63.5397 45.2624 63.6845C45.9153 63.8239 46.615 63.5317 47.3348 63.1939C56.1444 59.0586 69.6296 50.7867 75.0183 47.4208C75.4982 47.1205 75.9405 46.7104 76.2019 46.323C76.3668 46.079 76.3051 45.8217 76.1939 45.6621C76.1403 45.5857 75.9365 45.3404 75.5826 45.4289C74.4271 45.7144 73.3065 46.382 72.3186 46.9704C70.9084 47.8109 69.2851 48.7894 67.5371 49.8417C61.1926 53.6633 53.2972 58.4192 48.0278 61.1658C47.4595 61.462 46.6016 61.9098 45.7356 61.7154C45.0641 61.5653 44.5212 60.8883 44.123 59.7007C43.2209 57.0158 43.3067 52.3362 44.6941 50.7022C46.1405 48.9972 48.1874 47.8913 50.1673 46.8203C50.6592 46.5549 51.1244 46.3029 51.5774 46.0442C53.9809 44.6702 56.9192 43.0322 60.0318 41.299C64.702 38.6972 69.5317 36.0069 72.9902 33.9587L73.1215 33.8822C73.4915 33.6691 74.2636 33.2241 74.3816 32.7777C74.4111 32.6665 74.3936 32.5606 74.3266 32.4466C74.2395 32.2992 74.0612 32.2536 73.8735 32.2536L73.8668 32.2563Z" fill="#249CD9"/>
<path d="M45.1823 64.4583C45.1528 64.4583 45.122 64.4542 45.0911 64.4462C42.2815 63.6969 39.996 61.6205 38.1582 59.953C30.2186 52.7441 22.3486 45.2456 14.7683 37.6667C13.7575 36.656 13.2897 35.8745 12.7482 34.9683C12.468 34.5019 12.1798 34.018 11.7817 33.4416C10.9466 32.2311 9.11413 22.2314 12.6087 19.7354C14.8822 18.1122 35.5939 7.76522 41.9638 5.97705C42.5871 5.80145 43.3123 5.62853 44.0241 5.78C44.8485 5.95694 45.5067 6.54005 46.0348 7.01054C55.5897 15.4956 65.469 24.2689 74.7652 31.8987C74.9154 32.022 74.9368 32.2432 74.8135 32.3933C74.6901 32.5435 74.469 32.5649 74.3188 32.4416C65.0119 24.8024 55.1273 16.0251 45.5683 7.536C45.0764 7.09901 44.5201 6.60572 43.8766 6.46766C43.3204 6.34836 42.7198 6.49447 42.1528 6.65398C36.055 8.36574 15.2227 18.7314 13.0163 20.3078C10.0337 22.4378 11.5431 31.8598 12.3594 33.0434C12.771 33.6386 13.0793 34.1547 13.35 34.6091C13.8889 35.5099 14.3152 36.223 15.2642 37.1707C22.8366 44.7416 30.6985 52.232 38.63 59.4343C40.4115 61.0508 42.6273 63.0642 45.2721 63.7693C45.4598 63.8189 45.571 64.0119 45.5214 64.1996C45.4799 64.3564 45.3378 64.4609 45.1823 64.4609V64.4583Z" fill="#249CD9"/>
<path d="M74.3231 45.6837C73.4719 45.681 72.9424 44.913 72.5764 44.2441C72.0898 43.354 71.5858 42.4345 71.3552 41.3997C70.8338 39.0565 71.9531 36.1062 72.8405 34.0902C72.9182 33.9119 73.1247 33.8315 73.3043 33.9106C73.4812 33.9883 73.563 34.1961 73.4839 34.373C72.6367 36.2979 71.5657 39.1061 72.0416 41.2468C72.2507 42.1852 72.7292 43.0605 73.193 43.9063C73.4665 44.4049 73.8418 44.9787 74.3257 44.98C74.5201 44.98 74.6769 45.1382 74.6756 45.3325C74.6756 45.5256 74.5174 45.6824 74.3244 45.6824L74.3231 45.6837Z" fill="#249CD9"/>
<path d="M46.3849 61.6579C46.3461 61.6579 46.3058 61.6512 46.267 61.6378C45.4519 61.3469 45.2509 60.3295 45.1758 59.9461C44.7683 57.8818 44.5391 55.7666 44.4949 53.6621C44.4761 52.7425 44.4855 51.6755 44.8353 50.6715C44.8997 50.4879 45.0981 50.3914 45.283 50.4557C45.4667 50.5201 45.5632 50.7198 45.4989 50.9034C45.1879 51.7989 45.1798 52.7895 45.1973 53.6487C45.2402 55.713 45.464 57.7867 45.8648 59.8107C45.9506 60.2437 46.1088 60.8362 46.5029 60.9769C46.6852 61.0426 46.7804 61.2437 46.716 61.426C46.6651 61.5694 46.5297 61.6592 46.3849 61.6592V61.6579Z" fill="#249CD9"/>
<path d="M33.3942 23.8771C33.2574 23.8771 33.1288 23.7966 33.0711 23.6639C32.9947 23.4857 33.0778 23.2792 33.2561 23.2028C36.4223 21.8449 39.6086 20.4174 42.7252 18.9576C42.9008 18.8758 43.1099 18.9509 43.1917 19.1265C43.2735 19.3021 43.1984 19.5112 43.0228 19.5943C39.8995 21.0568 36.7065 22.4884 33.5322 23.8489C33.4867 23.869 33.4397 23.8771 33.3942 23.8771Z" fill="#249CD9"/>
<path d="M35.2485 26.6481C35.1211 26.6481 34.9978 26.5784 34.9362 26.4564C34.8477 26.2835 34.9161 26.0717 35.089 25.9832C38.5434 24.2138 42.0769 22.482 45.5929 20.8346C45.7685 20.7528 45.9776 20.8279 46.0607 21.0035C46.1425 21.1791 46.0674 21.3882 45.8918 21.4713C42.3838 23.116 38.857 24.8438 35.4093 26.6092C35.3584 26.636 35.3035 26.6481 35.2498 26.6481H35.2485Z" fill="#249CD9"/>
</g>
</svg>
