<svg width="28" height="28" viewBox="0 0 28 28" fill="none" xmlns="http://www.w3.org/2000/svg">
<rect width="28" height="28" rx="14" transform="matrix(1 0 0 -1 0 28)" fill="white" fill-opacity="0.25"/>
<path d="M12.2722 18.8021L16.7182 14.3694C16.7709 14.3166 16.8084 14.2595 16.8306 14.1979C16.8527 14.1363 16.8636 14.0704 16.8633 14C16.8633 13.9296 16.8522 13.8637 16.83 13.8021C16.8079 13.7405 16.7706 13.6834 16.7182 13.6306L12.2722 9.1847C12.1491 9.06157 11.9952 9 11.8105 9C11.6258 9 11.4675 9.06596 11.3356 9.19789C11.2036 9.32982 11.1377 9.48373 11.1377 9.65963C11.1377 9.83553 11.2036 9.98945 11.3356 10.1214L15.2142 14L11.3356 17.8786C11.2124 18.0018 11.1509 18.1536 11.1509 18.334C11.1509 18.5145 11.2168 18.6705 11.3488 18.8021C11.4807 18.934 11.6346 19 11.8105 19C11.9864 19 12.1403 18.934 12.2722 18.8021Z" fill="white"/>
</svg>
